PathFileType	4	(X/Y/Z)	s03c0203.trc
DataRate	CameraRate	NumFrames	NumMarkers	Units	OrigDataRate	OrigDataStartFrame	OrigNumFrames
200	200	4	50	mm	200	500	2000
Frame#	Time	racr			lacr			c7			jug			rlel			rdr			llel			ldr			s2			lic			ric			lasi			rasi			rpsi			lpsi			rgt			lgt			rth1			rth2			rth3			rth4			rlfc			rmfc			rsh1			rsh2			rsh3			rsh4			rlmal			rcal			rtoe			rmt5			rmt1			lth1			lth2			lth4			lth3			llfc			lmfc			lsh1			lsh2			lsh3			lsh4			llmal			lcal			ltoe			lmt1			lmt5			SBIKE			LBIKE			RBIKE			
		X1	Y1	Z1	X2	Y2	Z2	X3	Y3	Z3	X4	Y4	Z4	X5	Y5	Z5	X6	Y6	Z6	X7	Y7	Z7	X8	Y8	Z8	X9	Y9	Z9	X10	Y10	Z10	X11	Y11	Z11	X12	Y12	Z12	X13	Y13	Z13	X14	Y14	Z14	X15	Y15	Z15	X16	Y16	Z16	X17	Y17	Z17	X18	Y18	Z18	X19	Y19	Z19	X20	Y20	Z20	X21	Y21	Z21	X22	Y22	Z22	X23	Y23	Z23	X24	Y24	Z24	X25	Y25	Z25	X26	Y26	Z26	X27	Y27	Z27	X28	Y28	Z28	X29	Y29	Z29	X30	Y30	Z30	X31	Y31	Z31	X32	Y32	Z32	X33	Y33	Z33	X34	Y34	Z34	X35	Y35	Z35	X36	Y36	Z36	X37	Y37	Z37	X38	Y38	Z38	X39	Y39	Z39	X40	Y40	Z40	X41	Y41	Z41	X42	Y42	Z42	X43	Y43	Z43	X44	Y44	Z44	X45	Y45	Z45	X46	Y46	Z46	X47	Y47	Z47	X48	Y48	Z48	X49	Y49	Z49	X50	Y50	Z50	
500	2.5000	530.071030	1353.989407	-138.250328	441.546066	1385.639050	-429.565548	415.715103	1447.076882	-263.777656	435.057277	1273.097353	-280.629571	550.474718	1173.071318	80.110122	731.922624	995.627031	-30.107851	453.076964	1127.981805	-549.977023	702.748525	985.540169	-441.917192	-125.554766	1222.201924	-196.009066	31.113578	1252.781503	-390.027079	59.055593	1217.354678	-20.096469	57.444794	1180.446903	-359.076040	69.899978	1148.422943	-65.039826	-88.433589	1262.676808	-142.907280	-90.480197	1270.824030	-224.602819	-18.403180	1109.929826	-10.096955	-15.208797	1166.872547	-409.136799	90.425157	984.430019	-11.311277	173.148911	951.801108	-18.177003	227.588144	886.159877	-32.444471	193.755638	980.580170	-28.687844	303.267761	787.187101	-72.785809	288.750959	778.430219	-195.787864	212.990204	647.072781	-45.036981	177.486725	567.452632	-63.711713	107.971329	512.532499	-61.315193	200.475829	555.138839	-91.610214	17.710590	417.063605	-80.947312	-57.532854	403.503776	-115.773653	205.015259	234.307505	-119.780469	96.935540	284.202901	-51.322438	125.404751	282.153875	-165.542268	100.206049	1059.499528	-438.152323	179.607344	1025.833339	-441.431752	201.855513	1053.502029	-431.786105	233.311313	954.234932	-440.335273	348.774011	878.744592	-424.452199	350.990861	860.978326	-301.561189	306.574521	711.163678	-453.796204	311.795310	627.374148	-436.735819	272.547382	545.648156	-434.208450	341.753715	624.031427	-412.143986	242.973628	419.058761	-420.187017	189.766079	351.034585	-376.051299	488.687162	436.018365	-364.271005	397.226840	406.594799	-323.463565	384.162352	379.362943	-441.369088	-220.786875	942.786632	-235.502302	-14.596556	80.425951	-437.472262	-14.568979	80.362135	-37.121553	
501	2.5050	532.573906	1353.570746	-138.494612	443.806537	1385.769781	-429.971574	418.305550	1446.870004	-264.241175	437.100657	1272.990116	-280.683938	551.286785	1173.322861	80.416292	731.536447	995.282734	-30.177739	453.799135	1128.226929	-551.098267	702.480787	985.517490	-441.983976	-123.473258	1222.656626	-197.631134	33.907905	1252.327269	-391.181630	61.299499	1217.657394	-21.064996	59.181106	1179.907811	-359.391490	71.927925	1148.835173	-66.021873	-86.153523	1263.411086	-143.854715	-88.006987	1271.327475	-225.783719	-16.473988	1111.153692	-10.441146	-13.067326	1166.146336	-409.855499	92.243338	985.765769	-10.953442	175.058338	953.531430	-17.276315	229.801399	887.951992	-31.166420	195.605956	982.167895	-28.023254	305.755445	789.029406	-71.100011	291.921634	779.879371	-194.417092	214.171791	649.665675	-44.086412	177.877891	570.564662	-63.053271	107.713198	516.406358	-61.063533	200.808526	558.062040	-90.879867	16.451446	422.087225	-81.188878	-58.910350	408.690626	-116.437142	203.407931	239.226520	-119.561216	95.146801	289.260425	-51.462931	123.853896	287.120910	-165.648324	101.429114	1057.216483	-438.708777	180.488568	1022.786780	-441.905704	203.023556	1050.313181	-432.472515	233.487382	950.662406	-440.430889	348.261810	874.470121	-424.506166	350.567155	856.976998	-301.683987	307.102236	706.698443	-454.064291	312.723354	622.974809	-437.084740	273.964990	540.935278	-434.736608	342.724360	619.789874	-412.475942	244.861685	414.197131	-420.977552	191.539283	346.294338	-376.945130	490.574076	430.697442	-364.154203	398.918983	401.587873	-323.704844	386.237630	374.107425	-441.586632	-220.653573	942.839722	-235.527021	-14.583615	80.442885	-437.434709	-14.548976	80.358025	-37.118357	
502	2.5100	534.802007	1353.252561	-138.799604	445.953695	1385.869834	-430.226610	420.843699	1446.847939	-264.736086	439.170873	1273.171665	-280.820291	551.973188	1173.682382	80.731049	731.165953	994.941758	-30.181995	454.596455	1128.579614	-552.030341	702.296067	985.497705	-441.992955	-121.397014	1223.112937	-199.172438	36.597532	1252.084804	-392.230102	63.798823	1217.933811	-22.321045	60.939095	1179.337627	-359.655710	74.159664	1149.275261	-66.922621	-83.876847	1264.147400	-144.822871	-85.527198	1271.816802	-226.943820	-14.497035	1112.444861	-10.873555	-10.852294	1165.339109	-410.569405	94.155797	987.235459	-10.482787	177.054996	955.163410	-16.517563	231.761323	889.875014	-29.609495	197.491357	983.825111	-27.416802	308.407098	790.908761	-69.351741	296.140375	782.012135	-192.919337	215.542234	652.354811	-43.129473	178.488297	573.699413	-62.299333	107.616731	520.353351	-60.802253	201.363008	561.120367	-90.048894	15.394286	427.170117	-81.488133	-60.077051	414.215547	-117.143870	201.863739	243.999975	-119.420680	93.529107	294.332813	-51.646042	122.545232	292.111762	-165.787567	102.705261	1055.061101	-439.190132	181.399271	1019.784400	-442.303036	204.231154	1047.150114	-433.062317	233.750749	947.174747	-440.515034	347.979212	870.267068	-424.247708	349.675219	852.623772	-302.083471	307.653959	702.320564	-454.167013	313.583262	618.654373	-437.474473	275.195832	536.345960	-434.957867	343.640383	615.481553	-412.854180	246.817808	409.366056	-421.790548	193.193656	341.705873	-377.793888	492.428764	425.238101	-364.036084	400.551045	396.504776	-323.973419	388.209589	368.865827	-441.780198	-220.521571	942.878804	-235.586834	-14.578753	80.449723	-437.446128	-14.538888	80.372390	-37.119459	
503	2.5150	537.089081	1353.124453	-139.056118	448.133462	1386.122474	-430.590975	423.292855	1446.916393	-265.175905	441.197860	1273.409334	-280.867288	552.592362	1173.951294	80.839009	730.851324	994.610486	-29.983756	455.558191	1128.923526	-552.492793	702.198215	985.363788	-441.658713	-119.334704	1223.576023	-200.612499	35.380345	1248.983212	-382.337496	66.051817	1218.215944	-23.377160	62.716133	1178.735891	-359.864783	76.217987	1149.651563	-68.096743	-81.581792	1264.875507	-145.810128	-83.078663	1272.288875	-228.140376	-12.471533	1113.652095	-11.237336	-8.678949	1164.607020	-411.726978	96.136422	988.811606	-10.104064	179.165272	956.972936	-15.720639	233.806143	891.945662	-28.374481	199.335902	985.990099	-26.394760	311.201422	792.978466	-67.574773	300.140525	783.693497	-190.679549	217.041039	655.266587	-42.120098	179.211729	577.057071	-61.598934	107.754736	524.473162	-60.498407	202.019473	564.285428	-89.282535	14.856074	432.603521	-81.426675	-60.876653	419.767932	-117.648213	200.554734	248.893855	-119.273938	92.203912	299.631861	-51.805015	121.450821	297.224575	-165.866906	104.047070	1052.802388	-439.772649	182.406676	1016.851497	-442.736927	205.416587	1043.895954	-433.141423	234.074185	943.751563	-440.580858	347.677638	866.127993	-424.283579	349.017075	848.830283	-302.087460	308.168142	698.001954	-454.393745	314.691355	613.810181	-436.658201	276.545399	531.803680	-435.438768	344.797126	611.805861	-414.245357	248.594440	404.694969	-422.434175	194.671938	337.363989	-378.529676	494.318362	419.412698	-364.043074	402.006589	391.385225	-324.551878	390.044295	363.506189	-441.907257	-220.469793	942.902591	-235.588994	-14.553653	80.426071	-437.479431	-14.520810	80.376892	-37.121391	
